<svg width="227" height="40" viewBox="0 0 227 40" fill="none" xmlns="http://www.w3.org/2000/svg">
<g clip-path="url(#clip0_69_104)">
<path d="M25.3337 2.17341V2.00008C25.3337 1.26366 24.7367 0.666748 24.0003 0.666748H20.0003H16.0003C15.2639 0.666748 14.667 1.26366 14.667 2.00008V2.17341C7.51224 4.48533 2.66491 11.1477 2.66699 18.6667H37.3337C37.3357 11.1477 32.4884 4.48533 25.3337 2.17341Z" fill="#FF8F27"/>
<path d="M38.0003 18.6667H2.00033C1.26391 18.6667 0.666992 19.2637 0.666992 20.0001V21.3334C0.666992 22.0698 1.26391 22.6667 2.00033 22.6667H38.0003C38.7367 22.6667 39.3337 22.0698 39.3337 21.3334V20.0001C39.3337 19.2637 38.7367 18.6667 38.0003 18.6667Z" fill="#FF8F27"/>
<path d="M36 29.9999C36 28.5272 34.8061 27.3333 33.3333 27.3333H6.66667C5.19392 27.3333 4 28.5272 4 29.9999V35.3333C4 37.5424 5.79083 39.3333 8 39.3333H12C14.819 39.3353 17.4306 37.8523 18.8733 35.4306C19.2532 34.8083 20.0655 34.6118 20.6877 34.9917C20.8668 35.101 21.0173 35.2515 21.1267 35.4306C22.5694 37.8523 25.181 39.3353 28 39.3333H32C34.2092 39.3333 36 37.5424 36 35.3333V29.9999Z" fill="#E6E7E8"/>
<path d="M36 32H39.3333V35.3333H36V32Z" fill="#A7A9AC"/>
<path d="M36 30H39.3333V32H36V30Z" fill="#A7A9AC"/>
<path d="M0.666992 32.6667V36.0001H4.00033V35.3334V32.6667H0.666992Z" fill="#A7A9AC"/>
<path d="M0.666992 30.6667H4.00033V32.6667H0.666992V30.6667Z" fill="#A7A9AC"/>
<path d="M38 18H37.9733C37.7205 10.609 32.9521 4.133 25.9693 1.69733C25.8203 0.723833 24.9848 0.00375 24 0H16C15.0152 0.00375 14.1797 0.723833 14.0307 1.69733C7.04792 4.133 2.2795 10.609 2.02667 18H2C0.895417 18 0 18.8954 0 20V21.3333C0 22.4379 0.895417 23.3333 2 23.3333H38C39.1046 23.3333 40 22.4379 40 21.3333V20C40 18.8954 39.1046 18 38 18ZM14 3.12733V14.6667C14 15.0348 14.2985 15.3333 14.6667 15.3333C15.0348 15.3333 15.3333 15.0348 15.3333 14.6667V2C15.3333 1.63183 15.6318 1.33333 16 1.33333H19.3333V16C19.3333 16.3682 19.6318 16.6667 20 16.6667C20.3682 16.6667 20.6667 16.3682 20.6667 16V1.33333H24C24.3682 1.33333 24.6667 1.63183 24.6667 2V14.6667C24.6667 15.0348 24.9652 15.3333 25.3333 15.3333C25.7015 15.3333 26 15.0348 26 14.6667V3.12733C32.206 5.5055 36.3932 11.3585 36.64 18H3.36C3.60675 11.3585 7.794 5.5055 14 3.12733ZM38.6667 21.3333C38.6667 21.7015 38.3682 22 38 22H2C1.63183 22 1.33333 21.7015 1.33333 21.3333V20C1.33333 19.6318 1.63183 19.3333 2 19.3333H38C38.3682 19.3333 38.6667 19.6318 38.6667 20V21.3333Z" fill="#231F20"/>
<path d="M16.6667 29.3333H8C6.89542 29.3333 6 30.2287 6 31.3333V33.9999C6 34.3681 6.2985 34.6666 6.66667 34.6666C7.03483 34.6666 7.33333 34.3681 7.33333 33.9999V31.3333C7.33333 30.9651 7.63183 30.6666 8 30.6666H16.6667C17.0348 30.6666 17.3333 30.3681 17.3333 29.9999C17.3333 29.6318 17.0348 29.3333 16.6667 29.3333Z" fill="#231F20"/>
<path d="M39.3333 29.3334H36.6C36.2811 27.7825 34.9168 26.6687 33.3333 26.6667H6.66667C4.82667 26.6689 3.3355 28.1601 3.33333 30.0001H0.666667C0.2985 30.0001 0 30.2986 0 30.6667V36.0001C0 36.3682 0.2985 36.6667 0.666667 36.6667H3.53333C4.12408 38.6414 5.93892 39.9957 8 40.0001H12C15.0507 39.9914 17.8746 38.388 19.4453 35.7727C19.6367 35.4664 20.0402 35.3732 20.3465 35.5646C20.4308 35.6172 20.502 35.6884 20.5547 35.7727C22.1254 38.388 24.9493 39.9914 28 40.0001H32C34.3178 39.9973 36.2822 38.294 36.6133 36.0001H39.3333C39.7015 36.0001 40 35.7016 40 35.3334V30.0001C40 29.6319 39.7015 29.3334 39.3333 29.3334ZM38.6667 31.3334H36.6667V30.6667H38.6667V31.3334ZM3.33333 31.3334V32.0001H1.33333V31.3334H3.33333ZM1.33333 35.3334V33.3334H3.33333V35.3334H1.33333ZM32 38.6667H28C25.4181 38.6592 23.0281 37.3021 21.6987 35.0887C21.1309 34.1498 19.9095 33.849 18.9707 34.4167C18.6956 34.5831 18.465 34.8137 18.2987 35.0887C16.9698 37.3012 14.5809 38.6582 12 38.6667H8C6.16 38.6646 4.66883 37.1734 4.66667 35.3334V30.0001C4.66667 28.8955 5.56208 28.0001 6.66667 28.0001H33.3333C34.4379 28.0001 35.3333 28.8955 35.3333 30.0001V35.3334C35.3312 37.1734 33.84 38.6646 32 38.6667ZM36.6667 34.6667V32.6667H38.6667V34.6667H36.6667Z" fill="#231F20"/>
<path d="M20.667 29.3333H19.3337C18.9655 29.3333 18.667 29.6318 18.667 29.9999C18.667 30.3681 18.9655 30.6666 19.3337 30.6666H20.667C21.0352 30.6666 21.3337 30.3681 21.3337 29.9999C21.3337 29.6318 21.0352 29.3333 20.667 29.3333Z" fill="#231F20"/>
</g>
<path d="M65.9375 21.0156H60.0938L60.0625 17.7969H64.9688C65.8333 17.7969 66.5417 17.6875 67.0938 17.4688C67.6458 17.2396 68.0573 16.9115 68.3281 16.4844C68.6094 16.0469 68.75 15.5156 68.75 14.8906C68.75 14.1823 68.6146 13.6094 68.3438 13.1719C68.0833 12.7344 67.6719 12.4167 67.1094 12.2188C66.5573 12.0208 65.8438 11.9219 64.9688 11.9219H61.7188V31H57.0312V8.25H64.9688C66.2917 8.25 67.474 8.375 68.5156 8.625C69.5677 8.875 70.4583 9.25521 71.1875 9.76562C71.9167 10.276 72.474 10.9219 72.8594 11.7031C73.2448 12.474 73.4375 13.3906 73.4375 14.4531C73.4375 15.3906 73.224 16.2552 72.7969 17.0469C72.3802 17.8385 71.7188 18.4844 70.8125 18.9844C69.9167 19.4844 68.7448 19.7604 67.2969 19.8125L65.9375 21.0156ZM65.7344 31H58.8125L60.6406 27.3438H65.7344C66.5573 27.3438 67.2292 27.2135 67.75 26.9531C68.2708 26.6823 68.6562 26.3177 68.9062 25.8594C69.1562 25.401 69.2812 24.875 69.2812 24.2812C69.2812 23.6146 69.1667 23.0365 68.9375 22.5469C68.7188 22.0573 68.3646 21.6823 67.875 21.4219C67.3854 21.151 66.7396 21.0156 65.9375 21.0156H61.4219L61.4531 17.7969H67.0781L68.1562 19.0625C69.5417 19.0417 70.6562 19.2865 71.5 19.7969C72.3542 20.2969 72.974 20.9479 73.3594 21.75C73.7552 22.5521 73.9531 23.4115 73.9531 24.3281C73.9531 25.7865 73.6354 27.0156 73 28.0156C72.3646 29.0052 71.4323 29.75 70.2031 30.25C68.9844 30.75 67.4948 31 65.7344 31ZM87.1875 26.9531V14.0938H91.6875V31H87.4531L87.1875 26.9531ZM87.6875 23.4844L89.0156 23.4531C89.0156 24.5781 88.8854 25.625 88.625 26.5938C88.3646 27.5521 87.974 28.3854 87.4531 29.0938C86.9323 29.7917 86.276 30.3385 85.4844 30.7344C84.6927 31.1198 83.7604 31.3125 82.6875 31.3125C81.8646 31.3125 81.1042 31.1979 80.4062 30.9688C79.7188 30.7292 79.125 30.3594 78.625 29.8594C78.1354 29.349 77.75 28.6979 77.4688 27.9062C77.1979 27.1042 77.0625 26.1406 77.0625 25.0156V14.0938H81.5625V25.0469C81.5625 25.5469 81.6198 25.9688 81.7344 26.3125C81.8594 26.6562 82.0312 26.9375 82.25 27.1562C82.4688 27.375 82.724 27.5312 83.0156 27.625C83.3177 27.7188 83.651 27.7656 84.0156 27.7656C84.9427 27.7656 85.6719 27.5781 86.2031 27.2031C86.7448 26.8281 87.125 26.3177 87.3438 25.6719C87.5729 25.0156 87.6875 24.2865 87.6875 23.4844ZM99.875 14.0938V31H95.3594V14.0938H99.875ZM95.0781 9.6875C95.0781 9.03125 95.3073 8.48958 95.7656 8.0625C96.224 7.63542 96.8385 7.42188 97.6094 7.42188C98.3698 7.42188 98.9792 7.63542 99.4375 8.0625C99.9062 8.48958 100.141 9.03125 100.141 9.6875C100.141 10.3438 99.9062 10.8854 99.4375 11.3125C98.9792 11.7396 98.3698 11.9531 97.6094 11.9531C96.8385 11.9531 96.224 11.7396 95.7656 11.3125C95.3073 10.8854 95.0781 10.3438 95.0781 9.6875ZM108.344 7V31H103.828V7H108.344ZM122.047 27.3125V7H126.578V31H122.5L122.047 27.3125ZM111.359 22.75V22.4219C111.359 21.1302 111.505 19.9583 111.797 18.9062C112.089 17.8438 112.516 16.9323 113.078 16.1719C113.641 15.4115 114.333 14.8229 115.156 14.4062C115.979 13.9896 116.917 13.7812 117.969 13.7812C118.958 13.7812 119.823 13.9896 120.562 14.4062C121.312 14.8229 121.948 15.4167 122.469 16.1875C123 16.9479 123.427 17.849 123.75 18.8906C124.073 19.9219 124.307 21.0521 124.453 22.2812V23C124.307 24.1771 124.073 25.2708 123.75 26.2812C123.427 27.2917 123 28.1771 122.469 28.9375C121.948 29.6875 121.312 30.2708 120.562 30.6875C119.812 31.1042 118.938 31.3125 117.938 31.3125C116.885 31.3125 115.948 31.099 115.125 30.6719C114.312 30.2448 113.625 29.6458 113.062 28.875C112.51 28.1042 112.089 27.1979 111.797 26.1562C111.505 25.1146 111.359 23.9792 111.359 22.75ZM115.859 22.4219V22.75C115.859 23.4479 115.911 24.099 116.016 24.7031C116.13 25.3073 116.312 25.8438 116.562 26.3125C116.823 26.7708 117.156 27.1302 117.562 27.3906C117.979 27.6406 118.484 27.7656 119.078 27.7656C119.849 27.7656 120.484 27.5938 120.984 27.25C121.484 26.8958 121.865 26.4115 122.125 25.7969C122.396 25.1823 122.552 24.474 122.594 23.6719V21.625C122.562 20.9688 122.469 20.3802 122.312 19.8594C122.167 19.3281 121.948 18.875 121.656 18.5C121.375 18.125 121.021 17.8333 120.594 17.625C120.177 17.4167 119.682 17.3125 119.109 17.3125C118.526 17.3125 118.026 17.4479 117.609 17.7188C117.193 17.9792 116.854 18.3385 116.594 18.7969C116.344 19.2552 116.156 19.7969 116.031 20.4219C115.917 21.0365 115.859 21.7031 115.859 22.4219ZM139.234 26.3281C139.234 26.0052 139.141 25.7135 138.953 25.4531C138.766 25.1927 138.417 24.9531 137.906 24.7344C137.406 24.5052 136.682 24.2969 135.734 24.1094C134.88 23.9219 134.083 23.6875 133.344 23.4062C132.615 23.1146 131.979 22.7656 131.438 22.3594C130.906 21.9531 130.49 21.474 130.188 20.9219C129.885 20.3594 129.734 19.7188 129.734 19C129.734 18.2917 129.885 17.625 130.188 17C130.5 16.375 130.943 15.8229 131.516 15.3438C132.099 14.8542 132.807 14.474 133.641 14.2031C134.484 13.9219 135.432 13.7812 136.484 13.7812C137.953 13.7812 139.214 14.0156 140.266 14.4844C141.328 14.9531 142.141 15.599 142.703 16.4219C143.276 17.2344 143.562 18.1615 143.562 19.2031H139.062C139.062 18.7656 138.969 18.375 138.781 18.0312C138.604 17.6771 138.323 17.401 137.938 17.2031C137.562 16.9948 137.073 16.8906 136.469 16.8906C135.969 16.8906 135.536 16.9792 135.172 17.1562C134.807 17.3229 134.526 17.5521 134.328 17.8438C134.141 18.125 134.047 18.4375 134.047 18.7812C134.047 19.0417 134.099 19.276 134.203 19.4844C134.318 19.6823 134.5 19.8646 134.75 20.0312C135 20.1979 135.323 20.3542 135.719 20.5C136.125 20.6354 136.625 20.7604 137.219 20.875C138.438 21.125 139.526 21.4531 140.484 21.8594C141.443 22.2552 142.203 22.7969 142.766 23.4844C143.328 24.1615 143.609 25.0521 143.609 26.1562C143.609 26.9062 143.443 27.5938 143.109 28.2188C142.776 28.8438 142.297 29.3906 141.672 29.8594C141.047 30.3177 140.297 30.6771 139.422 30.9375C138.557 31.1875 137.583 31.3125 136.5 31.3125C134.927 31.3125 133.594 31.0312 132.5 30.4688C131.417 29.9062 130.594 29.1927 130.031 28.3281C129.479 27.4531 129.203 26.5573 129.203 25.6406H133.469C133.49 26.2552 133.646 26.75 133.938 27.125C134.24 27.5 134.62 27.7708 135.078 27.9375C135.547 28.1042 136.052 28.1875 136.594 28.1875C137.177 28.1875 137.661 28.1094 138.047 27.9531C138.432 27.7865 138.724 27.5677 138.922 27.2969C139.13 27.0156 139.234 26.6927 139.234 26.3281ZM151.031 17.3438V37.5H146.531V14.0938H150.703L151.031 17.3438ZM161.734 22.3594V22.6875C161.734 23.9167 161.589 25.0573 161.297 26.1094C161.016 27.1615 160.599 28.0781 160.047 28.8594C159.495 29.6302 158.807 30.2344 157.984 30.6719C157.172 31.099 156.234 31.3125 155.172 31.3125C154.141 31.3125 153.245 31.1042 152.484 30.6875C151.724 30.2708 151.083 29.6875 150.562 28.9375C150.052 28.1771 149.641 27.2969 149.328 26.2969C149.016 25.2969 148.776 24.224 148.609 23.0781V22.2188C148.776 20.9896 149.016 19.8646 149.328 18.8438C149.641 17.8125 150.052 16.9219 150.562 16.1719C151.083 15.4115 151.719 14.8229 152.469 14.4062C153.229 13.9896 154.12 13.7812 155.141 13.7812C156.214 13.7812 157.156 13.9844 157.969 14.3906C158.792 14.7969 159.479 15.3802 160.031 16.1406C160.594 16.901 161.016 17.8073 161.297 18.8594C161.589 19.9115 161.734 21.0781 161.734 22.3594ZM157.219 22.6875V22.3594C157.219 21.6406 157.156 20.9792 157.031 20.375C156.917 19.7604 156.729 19.224 156.469 18.7656C156.219 18.3073 155.885 17.9531 155.469 17.7031C155.062 17.4427 154.568 17.3125 153.984 17.3125C153.37 17.3125 152.844 17.4115 152.406 17.6094C151.979 17.8073 151.63 18.0938 151.359 18.4688C151.089 18.8438 150.885 19.2917 150.75 19.8125C150.615 20.3333 150.531 20.9219 150.5 21.5781V23.75C150.552 24.5208 150.698 25.2135 150.938 25.8281C151.177 26.4323 151.547 26.9115 152.047 27.2656C152.547 27.6198 153.203 27.7969 154.016 27.7969C154.609 27.7969 155.109 27.6667 155.516 27.4062C155.922 27.1354 156.25 26.7656 156.5 26.2969C156.76 25.8281 156.943 25.2865 157.047 24.6719C157.161 24.0573 157.219 23.3958 157.219 22.6875ZM168.922 7V31H164.422V7H168.922ZM168.281 21.9531H167.047C167.057 20.776 167.214 19.6927 167.516 18.7031C167.818 17.7031 168.25 16.8385 168.812 16.1094C169.375 15.3698 170.047 14.7969 170.828 14.3906C171.62 13.9844 172.495 13.7812 173.453 13.7812C174.286 13.7812 175.042 13.901 175.719 14.1406C176.406 14.3698 176.995 14.7448 177.484 15.2656C177.984 15.776 178.37 16.4479 178.641 17.2812C178.911 18.1146 179.047 19.125 179.047 20.3125V31H174.516V20.2812C174.516 19.5312 174.406 18.9427 174.188 18.5156C173.979 18.0781 173.672 17.7708 173.266 17.5938C172.87 17.4062 172.38 17.3125 171.797 17.3125C171.151 17.3125 170.599 17.4323 170.141 17.6719C169.693 17.9115 169.333 18.2448 169.062 18.6719C168.792 19.0885 168.594 19.5781 168.469 20.1406C168.344 20.7031 168.281 21.3073 168.281 21.9531ZM190.25 31.3125C188.938 31.3125 187.76 31.1042 186.719 30.6875C185.677 30.2604 184.792 29.6719 184.062 28.9219C183.344 28.1719 182.792 27.3021 182.406 26.3125C182.021 25.3125 181.828 24.25 181.828 23.125V22.5C181.828 21.2188 182.01 20.0469 182.375 18.9844C182.74 17.9219 183.26 17 183.938 16.2188C184.625 15.4375 185.458 14.8385 186.438 14.4219C187.417 13.9948 188.521 13.7812 189.75 13.7812C190.948 13.7812 192.01 13.9792 192.938 14.375C193.865 14.7708 194.641 15.3333 195.266 16.0625C195.901 16.7917 196.38 17.6667 196.703 18.6875C197.026 19.6979 197.188 20.8229 197.188 22.0625V23.9375H183.75V20.9375H192.766V20.5938C192.766 19.9688 192.651 19.4115 192.422 18.9219C192.203 18.4219 191.87 18.026 191.422 17.7344C190.974 17.4427 190.401 17.2969 189.703 17.2969C189.109 17.2969 188.599 17.4271 188.172 17.6875C187.745 17.9479 187.396 18.3125 187.125 18.7812C186.865 19.25 186.667 19.8021 186.531 20.4375C186.406 21.0625 186.344 21.75 186.344 22.5V23.125C186.344 23.8021 186.438 24.4271 186.625 25C186.823 25.5729 187.099 26.0677 187.453 26.4844C187.818 26.901 188.255 27.224 188.766 27.4531C189.286 27.6823 189.875 27.7969 190.531 27.7969C191.344 27.7969 192.099 27.6406 192.797 27.3281C193.505 27.0052 194.115 26.5208 194.625 25.875L196.812 28.25C196.458 28.7604 195.974 29.25 195.359 29.7188C194.755 30.1875 194.026 30.5729 193.172 30.875C192.318 31.1667 191.344 31.3125 190.25 31.3125ZM204.25 17.7812V31H199.75V14.0938H203.984L204.25 17.7812ZM209.344 13.9844L209.266 18.1562C209.047 18.125 208.781 18.099 208.469 18.0781C208.167 18.0469 207.891 18.0312 207.641 18.0312C207.005 18.0312 206.453 18.1146 205.984 18.2812C205.526 18.4375 205.141 18.6719 204.828 18.9844C204.526 19.2969 204.297 19.6771 204.141 20.125C203.995 20.5729 203.911 21.0833 203.891 21.6562L202.984 21.375C202.984 20.2812 203.094 19.276 203.312 18.3594C203.531 17.4323 203.849 16.625 204.266 15.9375C204.693 15.25 205.214 14.7188 205.828 14.3438C206.443 13.9688 207.146 13.7812 207.938 13.7812C208.188 13.7812 208.443 13.8021 208.703 13.8438C208.964 13.875 209.177 13.9219 209.344 13.9844ZM218.938 31.3125C217.625 31.3125 216.448 31.1042 215.406 30.6875C214.365 30.2604 213.479 29.6719 212.75 28.9219C212.031 28.1719 211.479 27.3021 211.094 26.3125C210.708 25.3125 210.516 24.25 210.516 23.125V22.5C210.516 21.2188 210.698 20.0469 211.062 18.9844C211.427 17.9219 211.948 17 212.625 16.2188C213.312 15.4375 214.146 14.8385 215.125 14.4219C216.104 13.9948 217.208 13.7812 218.438 13.7812C219.635 13.7812 220.698 13.9792 221.625 14.375C222.552 14.7708 223.328 15.3333 223.953 16.0625C224.589 16.7917 225.068 17.6667 225.391 18.6875C225.714 19.6979 225.875 20.8229 225.875 22.0625V23.9375H212.438V20.9375H221.453V20.5938C221.453 19.9688 221.339 19.4115 221.109 18.9219C220.891 18.4219 220.557 18.026 220.109 17.7344C219.661 17.4427 219.089 17.2969 218.391 17.2969C217.797 17.2969 217.286 17.4271 216.859 17.6875C216.432 17.9479 216.083 18.3125 215.812 18.7812C215.552 19.25 215.354 19.8021 215.219 20.4375C215.094 21.0625 215.031 21.75 215.031 22.5V23.125C215.031 23.8021 215.125 24.4271 215.312 25C215.51 25.5729 215.786 26.0677 216.141 26.4844C216.505 26.901 216.943 27.224 217.453 27.4531C217.974 27.6823 218.562 27.7969 219.219 27.7969C220.031 27.7969 220.786 27.6406 221.484 27.3281C222.193 27.0052 222.802 26.5208 223.312 25.875L225.5 28.25C225.146 28.7604 224.661 29.25 224.047 29.7188C223.443 30.1875 222.714 30.5729 221.859 30.875C221.005 31.1667 220.031 31.3125 218.938 31.3125Z" fill="white"/>
<defs>
<clipPath id="clip0_69_104">
<rect width="40" height="40" fill="white"/>
</clipPath>
</defs>
</svg>
